<?xml version="1.0" encoding="UTF-8" standalone="no"?>
<svg
   width="40"
   height="28"
   version="1.1"
   id="svg1359"
   sodipodi:docname="add_over.svg"
   inkscape:version="1.2.1 (9c6d41e410, 2022-07-14, custom)"
   xmlns:inkscape="http://www.inkscape.org/namespaces/inkscape"
   xmlns:sodipodi="http://sodipodi.sourceforge.net/DTD/sodipodi-0.dtd"
   xmlns="http://www.w3.org/2000/svg"
   xmlns:svg="http://www.w3.org/2000/svg">
  <defs
     id="defs1363" />
  <sodipodi:namedview
     id="namedview1361"
     pagecolor="#ffffff"
     bordercolor="#000000"
     borderopacity="0.25"
     inkscape:showpageshadow="2"
     inkscape:pageopacity="0.0"
     inkscape:pagecheckerboard="0"
     inkscape:deskcolor="#d1d1d1"
     showgrid="false"
     inkscape:zoom="25.102291"
     inkscape:cx="18.245347"
     inkscape:cy="16.4726"
     inkscape:window-width="1842"
     inkscape:window-height="1221"
     inkscape:window-x="2989"
     inkscape:window-y="571"
     inkscape:window-maximized="0"
     inkscape:current-layer="svg1359" />
  <rect
     style="fill:#2f343f;fill-opacity:1;stroke:none;stroke-width:1.45643;stroke-opacity:1"
     id="rect1951"
     width="40"
     height="28"
     x="0"
     y="0" />
  <g
     id="g1334"
     transform="scale(40,1)">
    <rect
       style="fill:#2b2e39"
       id="rect4165"
       width="1"
       height="1"
       x="0"
       y="0" />
  </g>
  <rect
     style="fill:#505666;fill-opacity:1;stroke:#2b2e39;stroke-width:1;stroke-dasharray:none;stroke-opacity:1"
     id="rect1897"
     width="34.999615"
     height="26.999611"
     x="2.500195"
     y="0.50019503"
     ry="1"
     rx="1" />
  <path
     style="fill:#d3dae3;fill-opacity:1"
     d="m 16,8 c 0,0 -2,0 -2,2 v 7 c 0,1 -1,1 -1,1 h -1 v 2 h 16 v -2 h -1 c 0,0 -1,0 -1,-1 v -7 c 0,0 0,-2 -2,-2 z m 3,3 h 2 v 2 h 2 v 2 h -2 v 2 h -2 v -2 h -2 v -2 h 2 z"
     id="path1357" />
</svg>
