<?xml version="1.0" encoding="UTF-8" standalone="no"?>
<svg
   viewBox="0 0 30 30"
   version="1.1"
   id="svg4465"
   sodipodi:docname="focus_over.svg"
   inkscape:version="1.2.1 (9c6d41e410, 2022-07-14, custom)"
   xmlns:inkscape="http://www.inkscape.org/namespaces/inkscape"
   xmlns:sodipodi="http://sodipodi.sourceforge.net/DTD/sodipodi-0.dtd"
   xmlns="http://www.w3.org/2000/svg"
   xmlns:svg="http://www.w3.org/2000/svg">
  <defs
     id="defs4469">
    <linearGradient
       id="selected_bg_color"
       gradientTransform="matrix(2.2857143,0,0,2.2857143,-2821.288,111.50947)"
       inkscape:swatch="solid">
      <stop
         style="stop-color:#5294e2;stop-opacity:1;"
         offset="0"
         id="stop5956" />
    </linearGradient>
  </defs>
  <sodipodi:namedview
     id="namedview4467"
     pagecolor="#ffffff"
     bordercolor="#000000"
     borderopacity="0.25"
     inkscape:showpageshadow="2"
     inkscape:pageopacity="0.0"
     inkscape:pagecheckerboard="0"
     inkscape:deskcolor="#d1d1d1"
     showgrid="false"
     inkscape:zoom="13.387888"
     inkscape:cx="-3.8467606"
     inkscape:cy="24.574451"
     inkscape:window-width="3840"
     inkscape:window-height="2119"
     inkscape:window-x="2560"
     inkscape:window-y="0"
     inkscape:window-maximized="1"
     inkscape:current-layer="g5970" />
  <g
     id="g5970"
     transform="matrix(1.1599221,0,0,1.1599221,3.9124854,4.6999245)">
    <g
       id="g7121"
       transform="matrix(0.86212686,0,0,0.86212686,-3.3730612,-4.0519295)">
      <g
         id="g2985"
         transform="matrix(0.64285714,0,0,0.64285714,-109.71428,-374.57143)">
        <g
           id="mdi-shade-focused"
           transform="matrix(0.875,0,0,0.875,-87.20753,7.7099844)">
          <ellipse
             ry="13.714287"
             rx="13.714286"
             id="path4068-7-5-9-6-7-2-1-6-1-6"
             style="display:inline;opacity:1;fill:#454c5c;fill-opacity:1;stroke:none;stroke-width:0;stroke-linecap:butt;stroke-linejoin:miter;stroke-miterlimit:4;stroke-dasharray:none;stroke-dashoffset:0;stroke-opacity:1"
             cx="321.38004"
             cy="683.76001" />
          <path
             inkscape:connector-curvature="0"
             id="path4068-7-5-9-6-7-2-5-23-4-3-6"
             d="m 321.38003,667.76002 a 16,16 0 0 0 -16,16 16,16 0 0 0 16,16 16,16 0 0 0 16,-16 16,16 0 0 0 -16,-16 z m 0,2.28571 a 13.714286,13.714286 0 0 1 13.71429,13.71429 13.714286,13.714286 0 0 1 -13.71429,13.71428 13.714286,13.714286 0 0 1 -13.71428,-13.71428 13.714286,13.714286 0 0 1 13.71428,-13.71429 z"
             style="display:inline;opacity:1;fill:#262932;fill-opacity:1;stroke:none;stroke-width:0;stroke-linecap:butt;stroke-linejoin:miter;stroke-miterlimit:4;stroke-dasharray:none;stroke-dashoffset:0;stroke-opacity:1" />
        </g>
      </g>
    </g>
    <path
       style="fill:#c4c7cc;fill-opacity:1;stroke-width:0.643"
       d="m 10,4 4,4 H 11.5 L 10,9.5 V 12 L 8,11 7,10 6,8 H 8.5 L 10,6.5 Z"
       id="path4630"
       sodipodi:nodetypes="ccccccccccc" />
    <path
       style="fill:none;fill-opacity:0.197094;stroke:#c4c7cc;stroke-width:0.343;stroke-dasharray:none;stroke-opacity:1"
       d="M 11,7 5.5,12.5"
       id="path5374"
       sodipodi:nodetypes="cc" />
  </g>
</svg>
