<?xml version="1.0" encoding="UTF-8" standalone="no"?>
<svg
   viewBox="0 0 30 30"
   version="1.1"
   id="svg1451"
   sodipodi:docname="quit_down.svg"
   inkscape:version="1.2.1 (9c6d41e410, 2022-07-14, custom)"
   xmlns:inkscape="http://www.inkscape.org/namespaces/inkscape"
   xmlns:sodipodi="http://sodipodi.sourceforge.net/DTD/sodipodi-0.dtd"
   xmlns="http://www.w3.org/2000/svg"
   xmlns:svg="http://www.w3.org/2000/svg">
  <defs
     id="defs1455" />
  <sodipodi:namedview
     id="namedview1453"
     pagecolor="#ffffff"
     bordercolor="#000000"
     borderopacity="0.25"
     inkscape:showpageshadow="2"
     inkscape:pageopacity="0.0"
     inkscape:pagecheckerboard="0"
     inkscape:deskcolor="#d1d1d1"
     showgrid="false"
     inkscape:zoom="7.8666667"
     inkscape:cx="15"
     inkscape:cy="50.021186"
     inkscape:window-width="2560"
     inkscape:window-height="1511"
     inkscape:window-x="0"
     inkscape:window-y="48"
     inkscape:window-maximized="1"
     inkscape:current-layer="svg1451" />
  <g
     id="g1463"
     transform="matrix(0.64285714,0,0,0.64285714,-86.569428,-402.85514)">
    <path
       style="display:inline;opacity:1;fill:#be3841;fill-opacity:1;stroke:none;stroke-width:0;stroke-linecap:butt;stroke-linejoin:miter;stroke-miterlimit:4;stroke-dasharray:none;stroke-dashoffset:0;stroke-opacity:1"
       d="m 158,636 a 14,14 0 0 0 -14,14 14,14 0 0 0 14,14 14,14 0 0 0 14,-14 14,14 0 0 0 -14,-14 z m -6,7.84376 h 1.5 c 0.016,-2e-4 0.0312,-7e-4 0.0468,0 0.38242,0.016 0.7648,0.1928 1.03124,0.46874 l 3.42188,3.42188 3.46876,-3.42188 c 0.39842,-0.34574 0.67,-0.45826 1.03124,-0.46874 H 164 v 1.5 c 0,0.4297 -0.0516,0.82596 -0.375,1.125 l -3.42188,3.42186 3.37499,3.375 c 0.28229,0.28226 0.42187,0.68018 0.42189,1.07814 v 1.5 h -1.5 c -0.39796,-2e-5 -0.79588,-0.1396 -1.07812,-0.42188 L 158,652 l -3.42188,3.42188 c -0.28224,0.28228 -0.68018,0.42188 -1.07812,0.42188 H 152 v -1.5 c 0,-0.39794 0.1396,-0.79588 0.42188,-1.07814 l 3.42188,-3.375 -3.42188,-3.42186 c -0.31612,-0.29196 -0.45474,-0.70388 -0.42188,-1.125 z"
       id="mdi-close-pressed"
       inkscape:connector-curvature="0" />
  </g>
</svg>
